<svg xmlns="http://www.w3.org/2000/svg" width="33.276" height="22.877" viewBox="0 0 33.276 22.877">
  <g id="email" transform="translate(0 -80)">
    <g id="Group_28" data-name="Group 28" transform="translate(22.058 84.218)">
      <g id="Group_27" data-name="Group 27">
        <path id="Path_82" data-name="Path 82" d="M339.392,152.287l11.218,7.092V144.9Z" transform="translate(-339.392 -144.896)" fill="#b8c8fb"/>
      </g>
    </g>
    <g id="Group_30" data-name="Group 30" transform="translate(0 84.218)">
      <g id="Group_29" data-name="Group 29">
        <path id="Path_83" data-name="Path 83" d="M0,144.9v14.483l11.218-7.092Z" transform="translate(0 -144.896)" fill="#b8c8fb"/>
      </g>
    </g>
    <g id="Group_32" data-name="Group 32" transform="translate(0.062 80)">
      <g id="Group_31" data-name="Group 31">
        <path id="Path_84" data-name="Path 84" d="M32.094,80H2.977A2.054,2.054,0,0,0,.96,81.77L17.536,92.691,34.111,81.77A2.054,2.054,0,0,0,32.094,80Z" transform="translate(-0.96 -80)" fill="#b8c8fb"/>
      </g>
    </g>
    <g id="Group_34" data-name="Group 34" transform="translate(0.067 92.863)">
      <g id="Group_33" data-name="Group 33">
        <path id="Path_85" data-name="Path 85" d="M21.11,277.922l-2.943,1.938a1.044,1.044,0,0,1-1.144,0l-2.943-1.94L1.024,286.179a2.051,2.051,0,0,0,2.013,1.755H32.154a2.051,2.051,0,0,0,2.013-1.755Z" transform="translate(-1.024 -277.92)" fill="#b8c8fb"/>
      </g>
    </g>
  </g>
</svg>
