<svg xmlns="http://www.w3.org/2000/svg" width="65" height="65"  xmlns:v="https://vecta.io/nano"><g fill="#b8c8fb"><rect width="65" height="65" rx="13"/><path d="M45.23 7.68c-.14.08-.162.123-.124.062-1.353 2.28-1.388 5.285-1.992 7.97v.062c-.01.04.01.085 0 .125-.293 2.88-1.243 5.82-.56 8.6a1.03 1.03 0 0 1 .062.187c.006.02-.005.042 0 .062s-.01.047 0 .063.05-.017.063 0a.97.97 0 0 0 .436.374c.08.015.22.008.5-.187a1.72 1.72 0 0 0 .561-1.183c.035-.067.077-.13.125-.187v-.063a.99.99 0 0 1 .063-.186.75.75 0 0 1 .062-.062 48.01 48.01 0 0 0 1.681-14.63 1.22 1.22 0 0 0-.312-.685c-.092-.115-.196-.22-.3-.312-.038-.027.014-.008-.124 0H45.3a.23.23 0 0 1-.062 0zm10.97 2.333c-2.064 1-3.12 3.4-4.544 5.354a.91.91 0 0 1-.062.187 1.32 1.32 0 0 1-.062.125c-1.806 3.2-4.107 6.4-4.358 10.085v.063a.92.92 0 0 0 .685.934c.455.055.905-.136 1.183-.5a1.81 1.81 0 0 1 .062-.062v-.124a67.3 67.3 0 0 0 7.782-15v-.062c.14-.34.188-.428.063-.684a1.01 1.01 0 0 0-.623-.312c-.026.01-.1-.02-.126-.004zm-32.126 1.484a8.74 8.74 0 0 0-1.183.5 3.71 3.71 0 0 0-2.24 2.8 11.53 11.53 0 0 0 0 4.172 34.07 34.07 0 0 0 .81 4.108l.56 1.805v.25c0 .108-.052.1-.124.186-.04.022.04.125 0 .125-.088.074-.197.118-.312.125a1.95 1.95 0 0 1-.623-.125 3.15 3.15 0 0 1-.311-.125c-.072-.043-.2-.048-.25-.124 0 .03.043.028 0-.062s-.107-.332-.187-.5c-.178-.377-.317-.815-.56-1.37l-1.805-3.735c-.62-1.2-1.44-2.304-2.428-3.238-.442-.424-.974-.744-1.557-.934a2.52 2.52 0 0 0-1.681.25 5.08 5.08 0 0 0-2.49 3.362 11.33 11.33 0 0 0 .063 4.233c.228 1.343.58 2.452.8 3.36l.248.935a5.48 5.48 0 0 1-.124.871c-.235.815-.808 2.18-.8 2.18S-.983 59.398 22.33 57.38c.192-.015.628-.125.8-.125 4.363-.894 8.635-2.186 12.762-3.86.756-.362 1.75-.722 2.863-1.245 2.23-1.044 5.03-2.382 7.72-3.86a40.39 40.39 0 0 0 7.1-4.731c1.9-1.68 3.307-3.52 3.05-5.354-.406-2.955-2.368-5.15-4.98-6.848a32 32 0 0 0-9.151-3.735c-3.26-.857-6.422-1.554-8.84-1.93-1.208-.188-2.34-.242-3.05-.374a2.52 2.52 0 0 1-.436-.124c-.06-.008-.067-.026-.124-.062-.073-.043-.206-.048-.25-.125s0-.165 0-.25V22.83a39.18 39.18 0 0 0-.435-5.292 10 10 0 0 0-1.806-4.793 3.53 3.53 0 0 0-2.49-1.245 3.42 3.42 0 0 0-1-.002z"/></g><path d="M45.26 17.15a4.19 4.19 0 0 1-2.6 3.876c-1.578.65-3.372.3-4.572-.9s-1.56-3.004-.9-4.572 2.18-2.6 3.876-2.6a4.2 4.2 0 0 1 2.967 1.228c.787.786 1.23 1.854 1.228 2.967zM14.206 49.998c-.023-.06-.037-1.513-.033-3.172l.008-3.078h3.3V30.456l-3.523-.024-.12-6.33h3.644v-1.885c0-4.414 2.634-7.084 7.2-8.227a26.96 26.96 0 0 1 7.158-.336l.118 6.786h-1.9c-2.916 0-3.77.706-3.776 2.746v.915h19v19.647H48.5a2.66 2.66 0 0 0 0 .44c.05 2.442-.023 2.9 0 5.8-.07.07-3.522-.01-7.6 0h-7.42v-6.25h3.23V30.436H26.306c-.2 5.033-.12 7.3 0 13.313 1.2.046 2.406-.04 3.6 0l.118 6.25h-7.888c-4.35-.001-7.917.056-7.94-.001z" fill="#383b5e"/></svg>