<svg xmlns="http://www.w3.org/2000/svg" width="65" height="65" viewBox="0 0 65 65">
  <g id="fiverr" transform="translate(0.303 0.691)">
    <g id="g6983" transform="translate(-0.303 -0.304)">
      <rect id="rect2984" width="65" height="65" rx="13" transform="translate(0 -0.387)" fill="#b8c8fb"/>
      <g id="g3372" transform="translate(7.351 7.28)">
        <g id="g3368" transform="translate(34.96 0)">
          <path id="path3366" d="M5671.863,6085.2c-.139.081-.162.123-.124.062-1.353,2.279-1.388,5.285-1.992,7.969v.062c-.01.04.01.085,0,.125-.293,2.881-1.243,5.82-.561,8.591a1.032,1.032,0,0,1,.062.187c.006.021-.005.042,0,.062s-.01.047,0,.063.05-.017.063,0a.967.967,0,0,0,.436.374c.08.015.22.008.5-.187a1.721,1.721,0,0,0,.561-1.183,1.035,1.035,0,0,1,.125-.187c0-.021,0-.042,0-.063a.989.989,0,0,1,.063-.186.749.749,0,0,1,.062-.062,48.01,48.01,0,0,0,1.681-14.63,1.221,1.221,0,0,0-.312-.685,1.993,1.993,0,0,0-.311-.312c-.038-.027.014-.008-.124,0h-.062a.229.229,0,0,1-.062,0Z" transform="translate(-5668.945 -6085.186)" fill="#b8c8fb"/>
          <path id="path3364" d="M5724.9,6108.27c-2.064,1-3.121,3.4-4.544,5.354a.908.908,0,0,1-.062.187,1.134,1.134,0,0,1-.062.125c-1.806,3.2-4.107,6.39-4.358,10.085,0,.021,0,.042,0,.063a.922.922,0,0,0,.685.934,1.294,1.294,0,0,0,1.183-.5c.02-.021.041-.042.062-.062,0-.021,0-.042,0-.062s0-.042,0-.062a67.3,67.3,0,0,0,7.782-15c0-.02,0-.041,0-.062.141-.341.188-.428.063-.684a1.009,1.009,0,0,0-.623-.312C5725,6108.284,5724.936,6108.253,5724.9,6108.27Z" transform="translate(-5711.011 -6105.924)" fill="#b8c8fb"/>
        </g>
        <path id="path3302" d="M5412.079,6114.968a8.739,8.739,0,0,0-1.183.5,3.716,3.716,0,0,0-2.241,2.8,11.53,11.53,0,0,0,0,4.172,34.069,34.069,0,0,0,.81,4.108c.271.993.466,1.476.56,1.805v.25c0,.108-.052.1-.124.186-.041.022.04.125,0,.125a.535.535,0,0,1-.312.125,1.953,1.953,0,0,1-.623-.125,3.149,3.149,0,0,1-.311-.125c-.072-.043-.2-.048-.249-.124,0,.029.043.028,0-.062s-.107-.332-.187-.5c-.178-.377-.317-.815-.56-1.37-.486-1.1-1.111-2.463-1.805-3.735a12.016,12.016,0,0,0-2.428-3.238,4.074,4.074,0,0,0-1.557-.934,2.52,2.52,0,0,0-1.681.25,5.078,5.078,0,0,0-2.49,3.362,11.317,11.317,0,0,0,.063,4.233c.228,1.343.581,2.452.809,3.361.1.384.216.742.248.935a5.482,5.482,0,0,1-.124.871c-.235.815-.808,2.18-.809,2.18s-10.863,28.851,12.451,26.832c.192-.015.628-.125.81-.125a72.737,72.737,0,0,0,12.762-3.861c.756-.362,1.749-.722,2.863-1.245,2.229-1.044,5.029-2.382,7.72-3.86a40.392,40.392,0,0,0,7.1-4.731c1.911-1.679,3.307-3.52,3.05-5.354-.406-2.955-2.368-5.151-4.98-6.848a32,32,0,0,0-9.151-3.735c-3.259-.857-6.422-1.554-8.84-1.93-1.208-.188-2.34-.242-3.05-.374a2.521,2.521,0,0,1-.436-.124c-.061-.008-.067-.026-.124-.062-.073-.043-.206-.048-.25-.125s0-.165,0-.249V6126.3a39.178,39.178,0,0,0-.435-5.292,10,10,0,0,0-1.806-4.793,3.529,3.529,0,0,0-2.49-1.245A3.417,3.417,0,0,0,5412.079,6114.968Z" transform="translate(-5395.356 -6111.138)" fill="#b8c8fb"/>
      </g>
    </g>
    <g id="g24732" transform="translate(13.543 12.266)">
      <path id="path24730" d="M2018.362,1585.108a4.195,4.195,0,1,1-4.195-4.195A4.194,4.194,0,0,1,2018.362,1585.108Z" transform="translate(-1986.949 -1580.914)" fill="#383b5e"/>
      <path id="path24702" d="M1641.421,1529.2c-.023-.059-.037-1.513-.033-3.172l.008-3.078h3.31c-.031-4.41.031-8.882,0-13.292l-1.8-.012-1.723-.012-.06-3.165-.059-3.165h3.644v-1.885c0-4.414,2.634-7.084,7.2-8.227a26.984,26.984,0,0,1,7.158-.336l.059,3.393.059,3.393h-1.89c-2.916,0-3.769.706-3.776,2.746v.915h19.01v19.647h3.177a2.662,2.662,0,0,0,0,.44c.05,2.442-.023,2.889,0,5.811-.07.07-3.522-.011-7.6,0h-7.421v-6.25h3.231v-13.313c-3,.035-7.715.017-10.394,0-.2,5.033-.119,7.3,0,13.313,1.2.046,2.406-.04,3.609,0l.059,3.186.059,3.064h-7.888C1645.011,1529.2,1641.443,1529.257,1641.421,1529.2Z" transform="translate(-1641.061 -1492.159)" fill="#383b5e"/>
    </g>
  </g>
</svg>
