<svg xmlns="http://www.w3.org/2000/svg" width="32.579" height="31.775"  xmlns:v="https://vecta.io/nano"><path d="M16.288 0c-8 0-14.8 5.796-16.08 13.683S3.56 29.222 11.14 31.747c.815.15 1.112-.353 1.112-.785l-.022-2.77c-4.53.985-5.487-2.183-5.487-2.183-.3-.985-.94-1.83-1.81-2.383-1.48-1.01.112-1 .112-1a3.42 3.42 0 0 1 2.495 1.678 3.47 3.47 0 0 0 4.741 1.354 3.48 3.48 0 0 1 1.034-2.178c-3.617-.41-7.42-1.808-7.42-8.05a6.3 6.3 0 0 1 1.677-4.371 5.85 5.85 0 0 1 .16-4.311c0 0 1.367-.438 4.48 1.67a15.45 15.45 0 0 1 8.156 0c3.1-2.108 4.475-1.67 4.475-1.67.6 1.364.66 2.906.163 4.31 1.1 1.187 1.7 2.753 1.674 4.37 0 6.258-3.81 7.635-7.438 8.038a3.89 3.89 0 0 1 1.106 3.017l-.02 4.47c0 .435.294.942 1.12.783 7.577-2.53 12.202-10.182 10.92-18.067S24.277 0 16.288 0z" fill="#b8c8fb" fill-rule="evenodd"/></svg>