<svg xmlns="http://www.w3.org/2000/svg" width="32.215" height="32.135" viewBox="0 0 32.215 32.135">
  <path id="Linkedin" d="M25.5,0H6.712A6.7,6.7,0,0,0,0,6.695V25.441a6.7,6.7,0,0,0,6.712,6.695H25.5a6.7,6.7,0,0,0,6.712-6.695V6.695A6.7,6.7,0,0,0,25.5,0ZM10.738,25.441H6.712V10.712h4.027ZM8.725,9.014a2.362,2.362,0,1,1,2.349-2.362A2.356,2.356,0,0,1,8.725,9.014ZM26.846,25.441H22.819v-7.5c0-4.51-5.369-4.168-5.369,0v7.5H13.423V10.712H17.45v2.363c1.874-3.463,9.4-3.718,9.4,3.315Z" fill="#b8c8fb"/>
</svg>
