<svg xmlns="http://www.w3.org/2000/svg" width="33.176" height="26.976" viewBox="0 0 33.176 26.976">
  <path id="Twitter" d="M85.521,125.376c12.519,0,19.369-10.382,19.369-19.369,0-.292,0-.584-.013-.876a13.869,13.869,0,0,0,3.4-3.531,13.8,13.8,0,0,1-3.916,1.075,6.849,6.849,0,0,0,3-3.77,13.541,13.541,0,0,1-4.328,1.646,6.809,6.809,0,0,0-11.776,4.66,7.524,7.524,0,0,0,.173,1.553A19.331,19.331,0,0,1,77.4,99.648a6.835,6.835,0,0,0,2.111,9.094,6.886,6.886,0,0,1-3.08-.85v.093a6.822,6.822,0,0,0,5.456,6.678,6.847,6.847,0,0,1-3.067.119,6.807,6.807,0,0,0,6.359,4.726,13.654,13.654,0,0,1-8.457,2.921,13.1,13.1,0,0,1-1.62-.093,19.364,19.364,0,0,0,10.421,3.04" transform="translate(-75.1 -98.4)" fill="#b8c8fb"/>
</svg>
