<svg xmlns="http://www.w3.org/2000/svg" width="33.176" height="26.976"  xmlns:v="https://vecta.io/nano"><path d="M10.42 26.976c12.52 0 19.37-10.382 19.37-19.37 0-.292 0-.584-.013-.876a13.87 13.87 0 0 0 3.4-3.531 13.8 13.8 0 0 1-3.916 1.075 6.85 6.85 0 0 0 3-3.77 13.54 13.54 0 0 1-4.328 1.646 6.81 6.81 0 0 0-11.776 4.66c.004.522.062 1.043.173 1.553A19.33 19.33 0 0 1 2.3 1.248c-1.8 3.115-.876 7.1 2.11 9.094-1.08-.038-2.134-.33-3.08-.85v.093c.003 3.24 2.283 6.03 5.456 6.678-1 .27-2.05.312-3.067.12.9 2.774 3.446 4.674 6.36 4.726-2.41 1.896-5.4 2.925-8.457 2.92a13.1 13.1 0 0 1-1.62-.093c3.113 1.986 6.73 3.04 10.42 3.04" fill="#b8c8fb"/></svg>