<svg xmlns="http://www.w3.org/2000/svg" width="18.673" height="18.673"  fill="#b8c8fb" xmlns:v="https://vecta.io/nano"><path d="M17.522 0h-6.42a1.15 1.15 0 0 0-1.037 1.739 1.15 1.15 0 0 0 1.037.561h3.642L8.67 8.375A1.15 1.15 0 1 0 10.296 10l6.075-6.075V7.57a1.15 1.15 0 0 0 1.739 1.037 1.15 1.15 0 0 0 .561-1.037V1.15A1.15 1.15 0 0 0 17.522 0zm-4.294 16.7H1.973V5.444h8.465L12.4 3.47H.987c-.545 0-.987.442-.987.987v13.228c0 .545.442.987.987.987h13.228a.99.99 0 0 0 .985-.987V6.26l-1.973 1.973z"/></svg>