<svg id="external-link" xmlns="http://www.w3.org/2000/svg" width="18.673" height="18.673" viewBox="0 0 18.673 18.673">
  <path id="Path_88" data-name="Path 88" d="M135.863,0h-6.42a1.151,1.151,0,1,0,0,2.3h3.642l-6.075,6.075A1.151,1.151,0,1,0,128.637,10l6.075-6.075V7.571a1.151,1.151,0,1,0,2.3,0V1.151A1.152,1.152,0,0,0,135.863,0Z" transform="translate(-118.341)" fill="#b8c8fb"/>
  <path id="Path_89" data-name="Path 89" d="M13.228,66.013H1.973V54.758h8.465l1.973-1.973H.987A.987.987,0,0,0,0,53.772V67a.987.987,0,0,0,.987.987H14.215A.987.987,0,0,0,15.2,67V55.575l-1.973,1.973Z" transform="translate(0 -49.314)" fill="#b8c8fb"/>
</svg>
