<svg xmlns="http://www.w3.org/2000/svg" width="12.222" height="17.806"  xmlns:v="https://vecta.io/nano"><path d="M11.55 7.674V5.44A5.44 5.44 0 0 0 3.371.667 5.44 5.44 0 0 0 .673 5.439v2.214a1 1 0 0 0-.673 1v3.045a6.11 6.11 0 0 0 9.167 5.292 6.11 6.11 0 0 0 3.055-5.292V8.65a1 1 0 0 0-.672-.976zm-4.277 6.542a.15.15 0 0 1-.153.184H5.125a.15.15 0 0 1-.153-.184l.32-1.693c-.37-.336-.495-.865-.318-1.332s.623-.778 1.123-.783.952.295 1.14.757.074.994-.287 1.338zm2.4-6.65c-1.782.532-7.126 0-7.126 0V5.44c0-1.968 1.595-3.563 3.563-3.563S9.673 3.47 9.673 5.44c0 0 1.783 1.595.001 2.127z" fill="#b8c8fb"/></svg>