<svg xmlns="http://www.w3.org/2000/svg" width="12.222" height="17.806" viewBox="0 0 12.222 17.806">
  <path id="lock" d="M71.094,7.674V5.439a5.439,5.439,0,1,0-10.877,0V7.653a1,1,0,0,0-.673,1v3.045a6.111,6.111,0,1,0,12.222,0V8.65A1,1,0,0,0,71.094,7.674Zm-4.277,6.542a.15.15,0,0,1-.153.184H64.669a.15.15,0,0,1-.153-.184l.319-1.693a1.216,1.216,0,1,1,1.658-.019Zm2.4-6.651c-1.782.532-7.126,0-7.126,0V5.439a3.563,3.563,0,0,1,7.126,0S71,7.034,69.218,7.566Z" transform="translate(-59.544)" fill="#b8c8fb"/>
</svg>
