<svg xmlns="http://www.w3.org/2000/svg" width="52.298" height="30.341"  xmlns:v="https://vecta.io/nano"><path d="M52.3 29.555c-1.577.6-3.353-.073-4.137-1.566l-7.508-10.386-1.085-1.438-8.77 11.86c-1 1.427-2.053 2.048-3.922 1.543l11.23-15.072L27.654.882c1.8-.35 3.04-.172 4.143 1.438l7.787 10.517 7.845-10.46c.74-1.4 2.415-2.02 3.9-1.443l-4.053 5.374-5.49 7.15a1.48 1.48 0 0 0 .038 2.165zM.013 14.244L.93 9.727C3.432.79 13.68-2.927 20.746 2.597c4.13 3.25 5.154 7.844 4.954 12.992H2.42c-.35 9.267 6.32 14.86 14.823 12.006 2.812-1 4.926-3.356 5.62-6.26.446-1.464 1.185-1.693 2.56-1.275-.7 3.654-2.288 6.707-5.638 8.618-5.006 2.86-12.15 1.935-15.9-2.04-2.08-2.314-3.337-5.25-3.58-8.35-.065-.516-.2-1.008-.294-1.5q.013-1.268.013-2.536zm2.448-.62H23.5c-.137-6.7-4.3-11.46-10.012-11.5-6.26-.05-10.754 4.6-11.025 11.5z"/></svg>