<svg xmlns="http://www.w3.org/2000/svg" width="52.298" height="30.341" viewBox="0 0 52.298 30.341">
  <path id="expressjs" d="M52.3,36.266A3.334,3.334,0,0,1,48.163,34.7L40.655,24.314,39.57,22.876,30.8,34.736c-1,1.427-2.053,2.048-3.922,1.543L38.107,21.207,27.654,7.593c1.8-.35,3.04-.172,4.143,1.438l7.787,10.517,7.845-10.46a3.115,3.115,0,0,1,3.89-1.443l-4.053,5.374-5.491,7.15a1.481,1.481,0,0,0,.038,2.165ZM.013,20.955l.918-4.517C3.432,7.5,13.679,3.784,20.746,9.308,24.876,12.557,25.9,17.152,25.7,22.3H2.419c-.35,9.267,6.32,14.859,14.823,12.006a8.815,8.815,0,0,0,5.619-6.259c.446-1.464,1.185-1.693,2.561-1.275-.7,3.654-2.288,6.707-5.638,8.618-5.006,2.86-12.151,1.935-15.91-2.04A14.146,14.146,0,0,1,.294,25c-.065-.516-.2-1.008-.294-1.5q.013-1.268.013-2.536Zm2.448-.621H23.5c-.137-6.7-4.31-11.46-10.012-11.5-6.259-.049-10.754,4.6-11.025,11.5Z" transform="translate(0 -6.711)"/>
</svg>
