<svg xmlns="http://www.w3.org/2000/svg" xmlns:xlink="http://www.w3.org/1999/xlink" width="43.25" height="59.428" viewBox="0 0 43.25 59.428">
  <defs>
    <linearGradient id="linear-gradient" x1="-0.035" y1="0.17" x2="1.008" y2="0.929" gradientUnits="objectBoundingBox">
      <stop offset="0" stop-color="#fff" stop-opacity="0.102"/>
      <stop offset="0.14" stop-color="#fff" stop-opacity="0.078"/>
      <stop offset="0.61" stop-color="#fff" stop-opacity="0.02"/>
      <stop offset="1" stop-color="#fff" stop-opacity="0"/>
    </linearGradient>
  </defs>
  <g id="firebase" transform="translate(-23.781 -5.97)">
    <path id="Path_66" data-name="Path 66" d="M23.833,53.919,31.148,7.113a1.351,1.351,0,0,1,2.526-.429l7.565,14.109,3.015-5.741a1.351,1.351,0,0,1,2.391,0L67.059,53.919H23.833Z" transform="translate(-0.028)" fill="#ffa000"/>
    <path id="Path_67" data-name="Path 67" d="M49.1,53.547l-7.869-14.9L23.833,71.78Z" transform="translate(-0.028 -17.861)" fill="#f57c00"/>
    <path id="Path_68" data-name="Path 68" d="M67.06,68.571,61.458,33.9a1.351,1.351,0,0,0-2.286-.73l-35.338,35.4L43.387,79.536a4.052,4.052,0,0,0,3.951,0L67.06,68.571Z" transform="translate(-0.029 -14.652)" fill="#ffca28"/>
    <path id="Path_69" data-name="Path 69" d="M61.429,19.251a1.351,1.351,0,0,0-2.286-.73l-7.014,7.032-5.515-10.5a1.351,1.351,0,0,0-2.391,0l-3.015,5.741L33.642,6.685a1.351,1.351,0,0,0-2.526.432L23.8,53.92h-.024l.024.027.192.095L59.132,18.866a1.351,1.351,0,0,1,2.29.729l5.555,34.358.054-.034-5.6-34.669Zm-37.56,34.6L31.12,7.448a1.351,1.351,0,0,1,2.526-.432L41.21,21.125l3.015-5.741a1.351,1.351,0,0,1,2.391,0l5.4,10.276-28.151,28.2Z" transform="translate(0 -0.001)" fill="rgba(255,255,255,0.2)"/>
    <path id="Path_70" data-name="Path 70" d="M47.338,121.979a4.052,4.052,0,0,1-3.951,0L23.881,111.044l-.047.3,19.553,10.962a4.052,4.052,0,0,0,3.951,0L67.06,111.344l-.051-.311L47.338,121.979Z" transform="translate(-0.028 -57.425)" fill="#a52714" opacity="0.2"/>
    <path id="Path_71" data-name="Path 71" d="M61.492,19.274a1.345,1.345,0,0,0-2.278-.729l-6.99,7.028-5.5-10.495a1.344,1.344,0,0,0-2.383,0l-3.005,5.739L33.8,6.713a1.345,1.345,0,0,0-2.517.432L24,53.927,43.485,64.885a4.027,4.027,0,0,0,3.937,0L67.075,53.927,61.492,19.274Z" transform="translate(-0.12 -0.017)" fill="url(#linear-gradient)"/>
  </g>
</svg>
