<svg xmlns="http://www.w3.org/2000/svg" width="43.25" height="59.428"  xmlns:v="https://vecta.io/nano"><defs><linearGradient id="A" x1="-.035" y1=".17" x2="1.008" y2=".929"><stop offset="0" stop-color="#fff" stop-opacity=".102"/><stop offset=".14" stop-color="#fff" stop-opacity=".078"/><stop offset=".61" stop-color="#fff" stop-opacity=".02"/><stop offset="1" stop-color="#fff" stop-opacity="0"/></linearGradient></defs><path d="M.024 47.95L7.34 1.143A1.35 1.35 0 0 1 8.448.019a1.35 1.35 0 0 1 1.417.695l7.565 14.11 3.015-5.74a1.35 1.35 0 0 1 2.391 0L43.25 47.95H.024z" fill="#ffa000"/><path d="M25.29 29.716l-7.87-14.9L.024 47.95z" fill="#f57c00"/><path d="M43.25 47.95l-5.602-34.67a1.35 1.35 0 0 0-2.286-.73L.024 47.948l19.553 10.966a4.05 4.05 0 0 0 3.951 0L43.25 47.95z" fill="#ffca28"/><path d="M37.648 13.28a1.35 1.35 0 0 0-2.286-.73l-7.014 7.032-5.515-10.5a1.35 1.35 0 0 0-2.391 0l-3.015 5.74L9.86.714A1.35 1.35 0 0 0 8.442.02a1.35 1.35 0 0 0-1.107 1.126L.02 47.976l.192.095 35.14-35.176a1.35 1.35 0 0 1 2.29.729l5.555 34.358.054-.034-5.6-34.67zM.088 47.88L7.34 1.477a1.35 1.35 0 0 1 2.526-.432l7.564 14.11 3.015-5.74a1.35 1.35 0 0 1 2.391 0l5.4 10.276-28.15 28.2z" fill="rgba(255,255,255,0.2)"/><path d="M23.53 58.584a4.05 4.05 0 0 1-3.951 0L.072 47.65l-.047.3L19.578 58.91a4.05 4.05 0 0 0 3.951 0L43.25 47.95l-.05-.31-19.67 10.946z" fill="#a52714" opacity=".2"/><path d="M37.59 13.287c-.083-.497-.437-.906-.917-1.06s-1.005-.026-1.36.33l-7 7.028-5.5-10.495c-.232-.444-.69-.722-1.19-.722s-.96.278-1.192.722l-3.005 5.74L9.9.726c-.273-.512-.843-.79-1.415-.693S7.468.584 7.382 1.158L.1 47.94l19.485 10.958c1.223.685 2.714.685 3.937 0L43.174 47.94 37.59 13.287z" fill="url(#A)"/></svg>