<svg xmlns="http://www.w3.org/2000/svg" xmlns:xlink="http://www.w3.org/1999/xlink" width="51.244" height="57.578" xmlns:v="https://vecta.io/nano"><g fill="#9b2e77"><path d="M4.665 43.884l-2.114-1.22L26.1 1.88l2.114 1.22z"/><path d="M2.067 39.405h47.095v2.44H2.067z"/><path d="M26.555 54.377L3 40.776l1.22-2.114 23.556 13.6zM47.018 18.93L23.462 5.33l1.22-2.114 23.556 13.6z"/><path d="M4.226 18.92l-1.22-2.114 23.556-13.6 1.22 2.114z"/><path d="M46.584 43.885L23.036 3.1l2.114-1.22 23.548 40.784zM3.935 15.2h2.44v27.2h-2.44z"/><path d="M44.87 15.19h2.44v27.2h-2.44z"/><path d="M26.14 53.344l-1.066-1.846 20.488-11.83 1.066 1.846z"/><path d="M50.545 43.184c-1.417 2.456-4.557 3.3-7.014 1.882s-3.3-4.557-1.882-7.014 4.557-3.3 7.014-1.882a5.14 5.14 0 0 1 1.882 7.014M9.58 19.526c-1.038 1.8-3.057 2.796-5.116 2.526S.7 20.298.173 18.292A5.14 5.14 0 0 1 7.7 12.513a5.14 5.14 0 0 1 1.882 7.013M.7 43.184c-1.417-2.457-.574-5.597 1.882-7.014s5.597-.575 7.014 1.882.575 5.597-1.882 7.014A5.14 5.14 0 0 1 .7 43.184m40.963-23.658c-1.417-2.457-.574-5.597 1.882-7.014s5.597-.575 7.014 1.882.575 5.597-1.882 7.014a5.14 5.14 0 0 1-7.014-1.882"/><use xlink:href="#B"/><use xlink:href="#B" y="-47.315"/></g><defs ><path id="B" d="M25.622 57.578a5.13 5.13 0 1 1 0-10.262 5.13 5.13 0 0 1 5.131 5.131c.001 1.36-.54 2.667-1.502 3.63s-2.268 1.503-3.63 1.502"/></defs></svg>