<svg xmlns="http://www.w3.org/2000/svg" width="58.907" height="57.578" viewBox="0 0 58.907 57.578">
  <g id="mongodb" transform="translate(39.104 -7.821) rotate(47)">
    <path id="Path_36" data-name="Path 36" d="M33.571,29.288C30.314,14.923,23.527,11.1,21.8,8.4A30.749,30.749,0,0,1,19.9,4.69a3.771,3.771,0,0,1-1.344,3.048C16.381,9.68,7.131,17.218,6.352,33.54c-.725,15.218,11.188,24.6,12.762,25.572a3.5,3.5,0,0,0,3.4-.534c5.743-3.941,13.589-14.448,11.06-29.29" transform="translate(0 0)" fill="#10aa50"/>
    <path id="Path_37" data-name="Path 37" d="M67.776,222.46c-.3,3.767-.515,5.955-1.276,8.108,0,0,.5,3.586.851,7.385h1.242A69.065,69.065,0,0,1,69.948,230C68.34,229.209,67.838,225.765,67.776,222.46Z" transform="translate(-47.38 -171.452)" fill="#b8c4c2"/>
    <path id="Path_38" data-name="Path 38" d="M73.386,59.747h0c-1.625-.751-2.1-4.267-2.167-7.542a154.372,154.372,0,0,0,.351-16.239c-.085-2.842.04-26.319-.7-29.756a28.563,28.563,0,0,0,1.746,3.38c1.731,2.705,8.521,6.53,11.775,20.9C86.926,45.3,79.123,55.78,73.386,59.747Z" transform="translate(-50.82 -1.197)" fill="#12924f"/>
  </g>
</svg>
