<svg xmlns="http://www.w3.org/2000/svg" width="58.907" height="57.578"  xmlns:v="https://vecta.io/nano"><g transform="matrix(.681998 .731354 -.731354 .681998 39.104 -7.821)"><path d="M33.57 29.288C30.314 14.923 23.527 11.1 21.8 8.4a30.75 30.75 0 0 1-1.9-3.71 3.77 3.77 0 0 1-1.344 3.048C16.38 9.68 7.13 17.218 6.352 33.54c-.725 15.218 11.188 24.6 12.762 25.572a3.5 3.5 0 0 0 3.4-.534c5.743-3.94 13.59-14.448 11.06-29.3" fill="#10aa50"/><path d="M20.396 51.008c-.3 3.767-.515 5.955-1.276 8.108l.85 7.385h1.242c.296-2.675.75-5.33 1.355-7.953-1.608-.79-2.1-4.235-2.172-7.54z" fill="#b8c4c2"/><path d="M22.566 58.55h0c-1.625-.75-2.1-4.267-2.167-7.542a154.37 154.37 0 0 0 .351-16.239c-.085-2.842.04-26.32-.7-29.756.506 1.164 1.1 2.293 1.746 3.38 1.73 2.705 8.52 6.53 11.775 20.9 2.535 14.8-5.268 25.3-11.005 29.257z" fill="#12924f"/></g></svg>