<svg xmlns="http://www.w3.org/2000/svg" xmlns:xlink="http://www.w3.org/1999/xlink" width="51.146" height="58.219" viewBox="0 0 51.146 58.219">
  <defs>
    <clipPath id="clip-path">
      <path id="Path_77" data-name="Path 77" d="M218.551,226.293l-22.818,13.17a2.754,2.754,0,0,0-1.379,2.386v26.359a2.753,2.753,0,0,0,1.379,2.386l22.819,13.18a2.763,2.763,0,0,0,2.757,0l22.816-13.18a2.76,2.76,0,0,0,1.376-2.386V241.85a2.754,2.754,0,0,0-1.381-2.386l-22.812-13.17a2.774,2.774,0,0,0-2.762,0" transform="translate(-194.354 -225.925)"/>
    </clipPath>
    <linearGradient id="linear-gradient" x1="-0.847" y1="-1.034" x2="-0.838" y2="-1.034" gradientUnits="objectBoundingBox">
      <stop offset="0.3" stop-color="#3e863d"/>
      <stop offset="0.5" stop-color="#55934f"/>
      <stop offset="0.8" stop-color="#5aad45"/>
    </linearGradient>
    <clipPath id="clip-path-2">
      <path id="Path_79" data-name="Path 79" d="M195.4,269.948a2.761,2.761,0,0,0,.812.713l19.574,11.306,3.26,1.874a2.766,2.766,0,0,0,1.589.36,2.817,2.817,0,0,0,.542-.1l24.066-44.065a2.729,2.729,0,0,0-.641-.509L229.659,230.9l-7.9-4.544a2.88,2.88,0,0,0-.715-.287Zm0,0" transform="translate(-195.398 -226.069)"/>
    </clipPath>
    <linearGradient id="linear-gradient-2" x1="-0.742" y1="-0.932" x2="-0.737" y2="-0.932" gradientUnits="objectBoundingBox">
      <stop offset="0.57" stop-color="#3e863d"/>
      <stop offset="0.72" stop-color="#619857"/>
      <stop offset="1" stop-color="#76ac64"/>
    </linearGradient>
    <clipPath id="clip-path-3">
      <path id="Path_81" data-name="Path 81" d="M220.876,225.944a2.784,2.784,0,0,0-1.1.353L197.021,239.43l24.535,44.688a2.736,2.736,0,0,0,.98-.338l22.818-13.18a2.765,2.765,0,0,0,1.332-1.883l-25.011-42.727a2.865,2.865,0,0,0-.558-.055c-.076,0-.152,0-.227.011" transform="translate(-197.021 -225.934)"/>
    </clipPath>
    <linearGradient id="linear-gradient-3" x1="-2.148" y1="-2.103" x2="-2.138" y2="-2.103" gradientUnits="objectBoundingBox">
      <stop offset="0.16" stop-color="#6bbf47"/>
      <stop offset="0.38" stop-color="#79b461"/>
      <stop offset="0.47" stop-color="#75ac64"/>
      <stop offset="0.7" stop-color="#659e5a"/>
      <stop offset="0.9" stop-color="#3e863d"/>
    </linearGradient>
  </defs>
  <g id="nodejs" transform="translate(-116.048 -61.909)">
    <g id="Group_24" data-name="Group 24" transform="translate(116.048 61.909)" clip-path="url(#clip-path)">
      <path id="Path_76" data-name="Path 76" d="M249.042,220.119l-64.3-31.516-32.967,67.253,64.295,31.518Zm0,0" transform="translate(-174.837 -208.817)" fill="url(#linear-gradient)"/>
    </g>
    <g id="Group_25" data-name="Group 25" transform="translate(116.613 61.987)" clip-path="url(#clip-path-2)">
      <path id="Path_78" data-name="Path 78" d="M144.07,226.46l45.4,61.447,60.042-44.361L204.11,182.1Zm0,0" transform="translate(-171.869 -205.914)" fill="url(#linear-gradient-2)"/>
    </g>
    <g id="Group_26" data-name="Group 26" transform="translate(117.492 61.914)" clip-path="url(#clip-path-3)">
      <path id="Path_80" data-name="Path 80" d="M197.02,225.934v58.185h49.656V225.934Zm0,0" transform="translate(-197.021 -225.934)" fill="url(#linear-gradient-3)"/>
    </g>
  </g>
</svg>
