<svg xmlns="http://www.w3.org/2000/svg" width="51.146" height="58.219"  xmlns:v="https://vecta.io/nano"><defs><clipPath id="A"><path d="M218.55 226.293l-22.818 13.17c-.853.492-1.38 1.4-1.38 2.386v26.36c0 .985.526 1.895 1.38 2.386l22.82 13.18c.853.49 1.904.49 2.757 0l22.816-13.18a2.76 2.76 0 0 0 1.376-2.386V241.85c0-.985-.527-1.895-1.38-2.386l-22.812-13.17c-.855-.49-1.907-.49-2.762 0" transform="translate(-194.354 -225.925)"/></clipPath><linearGradient id="B" x1="-.847" y1="-1.034" x2="-.838" y2="-1.034"><stop offset=".3" stop-color="#3e863d"/><stop offset=".5" stop-color="#55934f"/><stop offset=".8" stop-color="#5aad45"/></linearGradient><clipPath id="C"><path d="M195.4 269.948a2.76 2.76 0 0 0 .812.713l19.574 11.306 3.26 1.874c.482.277 1.035.402 1.59.36.184-.016.365-.05.542-.1l24.066-44.065a2.73 2.73 0 0 0-.641-.509L229.66 230.9l-7.9-4.544a2.88 2.88 0 0 0-.715-.287zm0 0" transform="translate(-195.398 -226.069)"/></clipPath><linearGradient id="D" x1="-.742" y1="-.932" x2="-.737" y2="-.932"><stop offset=".57" stop-color="#3e863d"/><stop offset=".72" stop-color="#619857"/><stop offset="1" stop-color="#76ac64"/></linearGradient><clipPath id="E"><path d="M220.876 225.944c-.387.04-.762.16-1.1.353L197.02 239.43l24.535 44.688c.345-.05.678-.164.98-.338l22.818-13.18c.697-.404 1.183-1.09 1.332-1.883L221.675 226c-.184-.037-.37-.055-.558-.055l-.227.01" transform="translate(-197.021 -225.934)"/></clipPath><linearGradient id="F" x1="-2.148" y1="-2.103" x2="-2.138" y2="-2.103"><stop offset=".16" stop-color="#6bbf47"/><stop offset=".38" stop-color="#79b461"/><stop offset=".47" stop-color="#75ac64"/><stop offset=".7" stop-color="#659e5a"/><stop offset=".9" stop-color="#3e863d"/></linearGradient></defs><g clip-path="url(#A)"><path d="M74.205 11.302l-64.3-31.516-32.967 67.253 64.295 31.518zm0 0" fill="url(#B)"/></g><g transform="translate(.565 .078)" clip-path="url(#C)"><path d="M-27.8 20.546l45.4 61.447 60.042-44.36L32.24-23.814zm0 0" fill="url(#D)"/></g><g transform="translate(1.444 .005)" clip-path="url(#E)"><path d="M-.001 0v58.185h49.656V0zm0 0" fill="url(#F)"/></g></svg>