<svg xmlns="http://www.w3.org/2000/svg" width="46.366" height="47.715" viewBox="0 0 46.366 47.715">
  <g id="psql" transform="translate(0.482 0.897)">
    <path id="Path_27" data-name="Path 27" d="M34.073,33.8c.3-2.529.212-2.9,2.095-2.49l.479.043a11.057,11.057,0,0,0,4.472-.749c2.395-1.111,3.814-2.967,1.453-2.478-5.385,1.111-5.777-.714-5.777-.714,5.689-8.441,8.069-19.156,6.013-21.778-5.6-7.156-15.29-3.772-15.452-3.682l-.052.009a18.558,18.558,0,0,0-3.6-.373,8.9,8.9,0,0,0-5.691,1.7S.73-3.831,1.534,12.249c.171,3.421,4.9,25.9,10.547,19.1,2.067-2.486,4.06-4.586,4.06-4.586a5.223,5.223,0,0,0,3.418.872l.1-.082a3.745,3.745,0,0,0,.039.965c-1.453,1.625-1.025,1.91-3.932,2.508-2.941.606-1.211,1.685-.086,1.968a5.976,5.976,0,0,0,6.671-2.165l-.086.341c.57.457.531,3.28.615,5.3a19.149,19.149,0,0,0,.628,5.009c.412,1.109.894,3.969,4.715,3.168,3.192-.684,5.633-1.67,5.857-10.827" transform="translate(0.015 0.03)" stroke="#000" stroke-width="4"/>
    <path id="Path_28" data-name="Path 28" d="M42.562,28.134c-5.385,1.111-5.777-.714-5.777-.714C42.474,18.979,44.854,8.264,42.8,5.642,37.2-1.513,27.51,1.872,27.348,1.96l-.052.009A19.213,19.213,0,0,0,23.7,1.595a8.9,8.9,0,0,0-5.691,1.7S.722-3.824,1.527,12.256c.171,3.421,4.9,25.9,10.547,19.1,2.08-2.5,4.073-4.6,4.073-4.6a5.223,5.223,0,0,0,3.418.872l.1-.082a3.764,3.764,0,0,0,.039.965c-1.453,1.625-1.025,1.91-3.932,2.508-2.941.606-1.211,1.685-.086,1.968a5.976,5.976,0,0,0,6.671-2.165l-.086.341c.57.457.969,2.968.9,5.246s-.112,3.839.335,5.061.894,3.969,4.715,3.168c3.192-.684,4.845-2.46,5.078-5.415.164-2.1.533-1.793.559-3.671l.3-.891c.341-2.851.056-3.77,2.022-3.341l.479.043a10.906,10.906,0,0,0,4.454-.749c2.395-1.111,3.814-2.967,1.453-2.478Z" transform="translate(0.009 0.038)" fill="#336791"/>
    <g id="Group_22" data-name="Group 22" transform="translate(1.489 1.039)">
      <g id="Group_20" data-name="Group 20">
        <path id="Path_29" data-name="Path 29" d="M22.592,29.788c-.149,5.3.037,10.644.555,11.926s1.631,3.82,5.452,3c3.192-.684,4.355-2.009,4.858-4.933l1.18-9.349M18.012,3.2s-17.3-7.074-16.5,9.006c.171,3.421,4.9,25.9,10.547,19.1,2.061-2.484,3.924-4.428,3.924-4.428M27.355,1.911c-.6.186,9.623-3.736,15.433,3.686,2.05,2.622-.326,13.337-6.015,21.778" transform="translate(-1.489 -1.039)" fill="none" stroke="#fff" stroke-linecap="round" stroke-linejoin="round" stroke-width="1.5"/>
        <path id="Path_30" data-name="Path 30" d="M31.162,27.137s.373,1.826,5.777.712c2.361-.488.939,1.368-1.453,2.478-1.964.913-6.369,1.146-6.442-.112-.186-3.252,2.318-2.264,2.137-3.078-.164-.734-1.286-1.453-2.024-3.25-.647-1.565-8.87-13.585,2.281-11.8C31.848,12,28.531,1.464,18.1,1.312S7.991,14.141,7.991,14.141" transform="translate(4.123 -0.806)" fill="none" stroke="#fff" stroke-linecap="round" stroke-linejoin="bevel" stroke-width="1.5"/>
      </g>
      <g id="Group_21" data-name="Group 21" transform="translate(11.939 11.33)">
        <path id="Path_31" data-name="Path 31" d="M13.822,16.044c-1.453,1.625-1.025,1.91-3.932,2.508-2.941.606-1.211,1.685-.086,1.968a5.975,5.975,0,0,0,6.671-2.167,1.993,1.993,0,0,0-.9-2.736,1.32,1.32,0,0,0-1.752.429Z" transform="translate(-7.578 0.072)" fill="none" stroke="#fff" stroke-linejoin="round" stroke-width="1.5"/>
        <path id="Path_32" data-name="Path 32" d="M14.045,23.208a7.643,7.643,0,0,1,.807-3.421c.742-1.994,2.452-3.988,1.085-10.318-1.019-4.715-7.864-.982-7.864-.343a31.879,31.879,0,0,1-.112,6.27c-.553,3.954,2.516,7.3,6.049,6.956" transform="translate(-7.896 -7.12)" fill="none" stroke="#fff" stroke-linecap="round" stroke-linejoin="round" stroke-width="1.5"/>
      </g>
    </g>
    <g id="Group_23" data-name="Group 23" transform="translate(17.947 14.557)">
      <path id="Path_33" data-name="Path 33" d="M10.323,8.274c-.032.218.4.8.962.88a1.035,1.035,0,0,0,1.071-.6c.032-.22-.4-.458-.962-.537S10.351,8.058,10.323,8.274Z" transform="translate(-10.321 -7.55)" fill="#fff" stroke="#fff" stroke-width="0.12"/>
      <path id="Path_34" data-name="Path 34" d="M20.429,8.035c.03.218-.4.8-.962.88a1.032,1.032,0,0,1-1.071-.6c-.028-.22.4-.458.962-.537s1.044.037,1.071.253Z" transform="translate(-3.35 -7.757)" fill="#fff" stroke="#fff" stroke-width="0.12"/>
    </g>
    <path id="Path_35" data-name="Path 35" d="M21.117,7.095c.093,1.714-.369,2.879-.429,4.7-.086,2.65,1.263,5.684-.77,8.721" transform="translate(15.913 5.229)" fill="none" stroke="#fff" stroke-linecap="round" stroke-linejoin="round" stroke-width="1.5"/>
  </g>
</svg>
