<svg xmlns="http://www.w3.org/2000/svg" width="46.366" height="47.715"  xmlns:v="https://vecta.io/nano"><style><![CDATA[.B{stroke-width:1.5}.C{stroke-linecap:round}.D{stroke-linejoin:round}]]></style><path d="M34.57 34.727c.3-2.53.212-2.9 2.095-2.5l.48.043c1.526.062 3.05-.193 4.472-.75 2.395-1.11 3.814-2.967 1.453-2.478-5.385 1.11-5.777-.714-5.777-.714 5.69-8.44 8.07-19.156 6.013-21.778-5.6-7.156-15.3-3.772-15.452-3.682l-.052.01a18.56 18.56 0 0 0-3.6-.373 8.9 8.9 0 0 0-5.691 1.7s-17.283-7.12-16.48 8.96c.17 3.42 4.9 25.9 10.547 19.1 2.067-2.486 4.06-4.586 4.06-4.586 1.004.678 2.212.987 3.418.872l.1-.082c-.03.322-.016.646.04.965-1.453 1.625-1.025 1.9-3.932 2.508-2.94.606-1.21 1.685-.086 1.968 2.458.796 5.15-.077 6.67-2.165l-.086.34c.57.457.53 3.28.615 5.3a19.15 19.15 0 0 0 .628 5.009c.412 1.11.894 3.97 4.715 3.168 3.192-.684 5.633-1.67 5.857-10.827" stroke="#000" stroke-width="4"/><path d="M43.053 29.07c-5.385 1.11-5.777-.714-5.777-.714 5.69-8.44 8.07-19.156 6.015-21.778C37.69-.578 28 2.807 27.84 2.895l-.052.01c-1.184-.237-2.388-.363-3.596-.374a8.9 8.9 0 0 0-5.691 1.7c0 0-17.287-7.12-16.482 8.96.17 3.42 4.9 25.9 10.547 19.1 2.08-2.5 4.073-4.6 4.073-4.6 1.004.678 2.212.987 3.418.872l.1-.082c-.028.322-.015.646.04.965-1.453 1.625-1.025 1.9-3.932 2.508-2.94.606-1.21 1.685-.086 1.968 2.458.796 5.15-.077 6.67-2.165l-.086.34c.57.457.97 2.968.9 5.246s-.112 3.84.335 5.06.894 3.97 4.715 3.168c3.192-.684 4.845-2.46 5.078-5.415.164-2.1.533-1.793.56-3.67l.3-.89c.34-2.85.056-3.77 2.022-3.34l.48.043c1.52.064 3.038-.19 4.454-.75 2.395-1.11 3.814-2.967 1.453-2.478z" fill="#336791"/><g fill="none" stroke="#fff" class="B"><g class="C"><path d="M23.074 30.685c-.15 5.3.037 10.644.555 11.926s1.63 3.82 5.452 3c3.192-.684 4.355-2.01 4.858-4.933l1.18-9.35M18.494 4.097s-17.3-7.074-16.5 9.006c.17 3.42 4.9 25.9 10.547 19.1 2.06-2.484 3.924-4.428 3.924-4.428M27.837 2.808c-.6.186 9.623-3.736 15.433 3.686 2.05 2.622-.326 13.337-6.015 21.778" class="D"/><path d="M37.256 28.267s.373 1.826 5.777.712c2.36-.488.94 1.368-1.453 2.478-1.964.913-6.37 1.146-6.442-.112-.186-3.252 2.318-2.264 2.137-3.078-.164-.734-1.286-1.453-2.024-3.25-.647-1.565-8.87-13.585 2.28-11.8.4-.087-2.907-10.623-13.338-10.775s-10.11 12.83-10.11 12.83" stroke-linejoin="bevel"/></g><g class="D"><path d="M20.154 29.382c-1.453 1.625-1.025 1.9-3.932 2.508-2.94.606-1.21 1.685-.086 1.968 2.458.796 5.15-.078 6.67-2.167.256-.48.304-1.044.134-1.56s-.544-.94-1.034-1.176a1.32 1.32 0 0 0-1.752.429z"/><path d="M20.06 29.354c0-1.188.276-2.36.807-3.42.742-1.994 2.452-3.988 1.085-10.318-1.02-4.715-7.864-.982-7.864-.343a31.88 31.88 0 0 1-.112 6.27c-.553 3.954 2.516 7.3 6.05 6.956" class="C"/></g></g><path d="M18.43 16.178c-.032.218.4.8.962.88.45.056.884-.187 1.07-.6.032-.22-.4-.458-.962-.537s-1.043.04-1.07.257zm17.078-.446c.03.218-.4.8-.962.88a1.03 1.03 0 0 1-1.071-.6c-.028-.22.4-.458.962-.537s1.044.037 1.07.253z" stroke="#fff" fill="#fff" stroke-width=".12"/><path d="M37.512 13.22c.093 1.714-.37 2.88-.43 4.7-.086 2.65 1.263 5.684-.77 8.72" fill="none" stroke="#fff" class="B C D"/></svg>