<svg xmlns="http://www.w3.org/2000/svg" width="62.779" height="55.907" viewBox="0 0 62.779 55.907">
  <g id="reactjs" transform="translate(-175.7 -78)">
    <path id="Path_24" data-name="Path 24" d="M238.479,105.96c0-4.159-5.208-8.1-13.193-10.544,1.843-8.138,1.024-14.613-2.585-16.686a5.61,5.61,0,0,0-2.866-.717v2.854a2.963,2.963,0,0,1,1.459.333c1.74,1,2.5,4.8,1.907,9.687-.141,1.2-.371,2.47-.653,3.762a62.012,62.012,0,0,0-8.126-1.395,62.422,62.422,0,0,0-5.323-6.4c4.172-3.877,8.087-6,10.749-6V78h0c-3.519,0-8.126,2.508-12.784,6.859-4.658-4.325-9.265-6.808-12.783-6.808V80.9c2.649,0,6.577,2.111,10.749,5.963a60.441,60.441,0,0,0-5.285,6.385,59.756,59.756,0,0,0-8.138,1.408c-.294-1.28-.512-2.521-.665-3.711-.6-4.888.141-8.689,1.868-9.7a2.848,2.848,0,0,1,1.472-.333V78.064h0a5.706,5.706,0,0,0-2.892.717c-3.6,2.073-4.4,8.535-2.546,16.648-7.959,2.457-13.142,6.385-13.142,10.531s5.208,8.1,13.193,10.544c-1.843,8.138-1.024,14.613,2.585,16.686a5.625,5.625,0,0,0,2.879.717c3.519,0,8.126-2.508,12.783-6.859,4.658,4.325,9.265,6.808,12.784,6.808a5.706,5.706,0,0,0,2.892-.717c3.6-2.073,4.4-8.535,2.546-16.648C233.3,114.047,238.479,110.106,238.479,105.96Zm-16.661-8.535c-.473,1.651-1.062,3.353-1.727,5.055-.525-1.024-1.075-2.047-1.676-3.071s-1.216-2.022-1.843-2.994C218.389,96.683,220.142,97.015,221.818,97.425Zm-5.861,13.628c-1,1.728-2.022,3.365-3.084,4.888-1.907.166-3.839.256-5.784.256s-3.864-.09-5.758-.243q-1.593-2.284-3.1-4.863-1.459-2.514-2.662-5.093c.793-1.715,1.689-3.429,2.649-5.106,1-1.728,2.022-3.365,3.084-4.888,1.907-.166,3.839-.256,5.784-.256s3.864.09,5.758.243q1.593,2.284,3.1,4.863,1.459,2.514,2.662,5.093C217.8,107.662,216.917,109.377,215.957,111.053Zm4.133-1.664c.691,1.715,1.28,3.429,1.766,5.093-1.676.409-3.442.755-5.272,1.024.627-.985,1.254-2,1.843-3.033S219.566,110.413,220.09,109.389Zm-12.975,13.654a52.754,52.754,0,0,1-3.557-4.095c1.152.051,2.329.09,3.519.09s2.393-.026,3.557-.09A49.946,49.946,0,0,1,207.115,123.043Zm-9.52-7.537c-1.817-.269-3.57-.6-5.246-1.011.473-1.651,1.062-3.353,1.728-5.055.525,1.024,1.075,2.047,1.676,3.071S196.968,114.533,197.595,115.506Zm9.456-26.629a52.76,52.76,0,0,1,3.557,4.095c-1.152-.051-2.329-.09-3.519-.09s-2.393.026-3.557.09A49.942,49.942,0,0,1,207.051,88.877Zm-9.469,7.537c-.627.985-1.254,2-1.843,3.033s-1.139,2.047-1.664,3.071c-.691-1.715-1.28-3.429-1.766-5.093C193.986,97.028,195.752,96.683,197.582,96.414ZM186,112.435c-4.53-1.932-7.46-4.466-7.46-6.475s2.93-4.555,7.46-6.475c1.1-.473,2.3-.9,3.545-1.292a61.463,61.463,0,0,0,2.879,7.793,60.6,60.6,0,0,0-2.841,7.755C188.317,113.343,187.114,112.908,186,112.435Zm6.884,18.286c-1.74-1-2.5-4.8-1.907-9.687.141-1.2.371-2.47.653-3.762a62.017,62.017,0,0,0,8.126,1.395,62.421,62.421,0,0,0,5.323,6.4c-4.172,3.877-8.087,6-10.749,6A3.054,3.054,0,0,1,192.885,130.721Zm30.353-9.751c.6,4.888-.141,8.689-1.868,9.7A2.848,2.848,0,0,1,219.9,131c-2.649,0-6.577-2.111-10.749-5.963a60.438,60.438,0,0,0,5.285-6.385,59.757,59.757,0,0,0,8.138-1.408A35.824,35.824,0,0,1,223.238,120.97Zm4.927-8.535c-1.1.473-2.3.9-3.545,1.292a61.457,61.457,0,0,0-2.879-7.793,60.592,60.592,0,0,0,2.841-7.755c1.267.4,2.47.832,3.6,1.305,4.53,1.932,7.46,4.466,7.46,6.475S232.695,110.515,228.165,112.435Z" fill="#61dafb"/>
    <path id="Path_25" data-name="Path 25" d="M320.8,78.4Z" transform="translate(-126.532 -0.349)" fill="#61dafb"/>
    <circle id="Ellipse_6" data-name="Ellipse 6" cx="5.848" cy="5.848" r="5.848" transform="translate(201.229 100.112)" fill="#61dafb"/>
    <path id="Path_26" data-name="Path 26" d="M520.5,78.1Z" transform="translate(-300.678 -0.087)" fill="#61dafb"/>
  </g>
</svg>
