<svg xmlns="http://www.w3.org/2000/svg" width="62.779" height="55.907"  fill="#61dafb" xmlns:v="https://vecta.io/nano"><path d="M62.78 27.96c0-4.16-5.208-8.1-13.193-10.544C51.43 9.278 50.6 2.803 47 .73a5.61 5.61 0 0 0-2.866-.717v2.854c.507-.016 1 .1 1.46.333 1.74 1 2.5 4.8 1.907 9.687-.14 1.2-.37 2.47-.653 3.762a62.01 62.01 0 0 0-8.126-1.395 62.42 62.42 0 0 0-5.323-6.4c4.172-3.877 8.087-6 10.75-6V0c-3.52 0-8.126 2.508-12.784 6.86C26.706 2.534 22.1.05 18.58.05V2.9c2.65 0 6.577 2.1 10.75 5.963a60.44 60.44 0 0 0-5.285 6.385c-2.742.28-5.46.752-8.138 1.408a38.55 38.55 0 0 1-.665-3.711c-.6-4.888.14-8.7 1.868-9.7a2.85 2.85 0 0 1 1.472-.333V.064a5.74 5.74 0 0 0-2.892.717c-3.6 2.073-4.4 8.535-2.546 16.648C5.185 19.886.002 23.814.002 27.96s5.208 8.1 13.193 10.544C11.352 46.642 12.17 53.117 15.78 55.2c.878.492 1.872.74 2.88.717 3.52 0 8.126-2.508 12.783-6.86 4.658 4.325 9.265 6.808 12.784 6.808a5.74 5.74 0 0 0 2.892-.717c3.6-2.073 4.4-8.535 2.546-16.648C57.6 36.047 62.78 32.106 62.78 27.96zm-16.66-8.535c-.473 1.65-1.062 3.353-1.727 5.055-.525-1.024-1.075-2.047-1.676-3.07a83.41 83.41 0 0 0-1.843-2.994 60.93 60.93 0 0 1 5.246 1zm-5.86 13.628c-1 1.728-2.022 3.365-3.084 4.888a66.73 66.73 0 0 1-5.784.256c-1.945 0-3.864-.1-5.758-.243q-1.593-2.284-3.1-4.863-1.46-2.514-2.662-5.093c.793-1.715 1.7-3.43 2.65-5.106 1-1.728 2.022-3.365 3.084-4.888a66.73 66.73 0 0 1 5.784-.256c1.945 0 3.864.1 5.758.243q1.593 2.284 3.1 4.863 1.46 2.514 2.662 5.093c-.806 1.715-1.7 3.43-2.65 5.106zM44.4 31.4a54.75 54.75 0 0 1 1.766 5.093c-1.676.4-3.442.755-5.272 1.024.627-.985 1.254-2 1.843-3.033A76.04 76.04 0 0 0 44.4 31.39zM31.415 45.043c-1.255-1.303-2.442-2.67-3.557-4.095l3.52.1a65.3 65.3 0 0 0 3.557-.09 49.85 49.85 0 0 1-3.52 4.095zm-9.52-7.537c-1.817-.27-3.57-.6-5.246-1a57.28 57.28 0 0 1 1.728-5.055c.525 1.024 1.075 2.047 1.676 3.07a84.34 84.34 0 0 0 1.842 2.995zm9.456-26.63a52.76 52.76 0 0 1 3.557 4.095c-1.152-.05-2.33-.1-3.52-.1a65.3 65.3 0 0 0-3.557.09 49.94 49.94 0 0 1 3.519-4.095zm-9.47 7.537c-.627.985-1.254 2-1.843 3.033a77.6 77.6 0 0 0-1.664 3.07 54.75 54.75 0 0 1-1.766-5.093c1.677-.397 3.443-.742 5.273-1zM10.3 34.435c-4.53-1.932-7.46-4.466-7.46-6.475s2.93-4.555 7.46-6.475c1.1-.473 2.3-.9 3.545-1.292.783 2.66 1.745 5.263 2.88 7.793a60.6 60.6 0 0 0-2.841 7.755 39.57 39.57 0 0 1-3.583-1.306zm6.884 18.286c-1.74-1-2.5-4.8-1.907-9.687.14-1.2.37-2.47.653-3.762 2.675.645 5.4 1.1 8.126 1.395a62.42 62.42 0 0 0 5.323 6.4c-4.172 3.877-8.087 6-10.75 6a3.05 3.05 0 0 1-1.445-.346zm30.353-9.75c.6 4.888-.14 8.7-1.868 9.7A2.85 2.85 0 0 1 44.2 53c-2.65 0-6.577-2.1-10.75-5.963a60.44 60.44 0 0 0 5.285-6.385c2.742-.28 5.46-.752 8.138-1.408.287 1.23.508 2.473.664 3.726zm4.927-8.535c-1.1.473-2.3.9-3.545 1.292-.783-2.66-1.745-5.263-2.88-7.793a60.59 60.59 0 0 0 2.841-7.755c1.267.4 2.47.832 3.6 1.305 4.53 1.932 7.46 4.466 7.46 6.475s-2.946 4.556-7.476 6.476zM18.568.05z"/><circle cx="31.377" cy="27.96" r="5.848"/><path d="M44.122.013z"/></svg>