<svg xmlns="http://www.w3.org/2000/svg" width="64.24" height="55.059"  xmlns:v="https://vecta.io/nano"><path d="M61.722 42.455c-3.428 1.787-21.187 9.09-24.968 11.06s-5.88 1.952-8.868.525S6 44.977 2.597 43.35c-1.7-.813-2.6-1.5-2.6-2.148v-6.497s24.6-5.356 28.576-6.78 5.35-1.477 8.73-.238 23.592 4.885 26.932 6.108v6.4c.003.648-.768 1.352-2.513 2.26z" fill="#a41e11"/><path d="M61.722 35.96c-3.428 1.786-21.187 9.09-24.968 11.06s-5.88 1.952-8.868.525S6 38.482 2.597 36.855-.88 34.108 2.466 32.8l26.11-10.11c3.972-1.425 5.35-1.477 8.73-.238s21.033 8.265 24.37 9.486 3.472 2.235.044 4.022z" fill="#d82c20"/><path d="M61.722 31.867c-3.428 1.787-21.187 9.09-24.968 11.06s-5.88 1.952-8.868.524S6 34.4 2.597 32.762c-1.7-.813-2.6-1.5-2.6-2.147V24.12s24.6-5.356 28.576-6.78 5.35-1.477 8.73-.238 23.592 4.884 26.932 6.108v6.4c.003.646-.768 1.346-2.513 2.257z" fill="#a41e11"/><path d="M61.722 25.372c-3.428 1.787-21.187 9.09-24.968 11.06s-5.88 1.952-8.868.524S6 27.894 2.597 26.267-.88 23.52 2.466 22.2l26.11-10.108c3.972-1.425 5.35-1.477 8.73-.238s21.033 8.264 24.374 9.488 3.47 2.237.04 4.02z" fill="#d82c20"/><path d="M61.722 20.885c-3.428 1.787-21.187 9.09-24.968 11.06s-5.88 1.952-8.868.524S6 23.408 2.597 21.78c-1.7-.813-2.6-1.5-2.6-2.147V13.14s24.6-5.356 28.576-6.78 5.35-1.476 8.73-.238 23.592 4.884 26.932 6.108v6.4c.003.642-.768 1.346-2.513 2.256z" fill="#a41e11"/><path d="M61.722 14.387c-3.428 1.787-21.187 9.09-24.968 11.06s-5.88 1.952-8.868.524S6 16.91 2.597 15.282s-3.476-2.747-.13-4.057l26.11-10.108C32.55-.308 33.927-.36 37.307.88S58.34 9.143 61.68 10.367s3.47 2.237.04 4.02z" fill="#d82c20"/><g fill="#fff"><path d="M40.537 8.137l-5.566.578-1.246 3-2.013-3.346-6.427-.578 4.8-1.73-1.44-2.655 4.5 1.756 4.233-1.386-1.144 2.745zm-7.145 14.545L23.004 18.37 37.9 16.084z"/><ellipse cx="18.99" cy="12.887" rx="7.956" ry="3.084"/></g><path d="M47.115 8.956l8.8 3.482-8.8 3.478z" fill="#7a0c00"/><path d="M37.37 12.812l9.746-3.856.008 6.96-.955.374z" fill="#ad2115"/></svg>