<svg xmlns="http://www.w3.org/2000/svg" width="64.24" height="55.059" viewBox="0 0 64.24 55.059">
  <g id="redis" transform="translate(-171.322 -227.113)">
    <path id="Path_55" data-name="Path 55" d="M233.045,313.75c-3.428,1.787-21.187,9.089-24.968,11.059s-5.881,1.952-8.868.525-21.885-9.062-25.289-10.689c-1.7-.813-2.6-1.5-2.6-2.148V306s24.6-5.356,28.576-6.781,5.35-1.477,8.73-.238,23.592,4.885,26.932,6.108c0,0,0,5.8,0,6.4C235.561,312.137,234.79,312.841,233.045,313.75Z" transform="translate(-0.001 -44.182)" fill="#a41e11"/>
    <path id="Path_56" data-name="Path 56" d="M233.044,298.622c-3.428,1.786-21.187,9.089-24.968,11.059s-5.881,1.952-8.868.525-21.885-9.062-25.289-10.689-3.476-2.747-.131-4.056,22.139-8.684,26.111-10.109,5.35-1.477,8.73-.238S229.662,293.379,233,294.6,236.472,296.835,233.044,298.622Z" transform="translate(0 -35.549)" fill="#d82c20"/>
    <path id="Path_57" data-name="Path 57" d="M233.045,285.711c-3.428,1.787-21.187,9.089-24.968,11.06s-5.881,1.952-8.868.524-21.885-9.061-25.289-10.689c-1.7-.813-2.6-1.5-2.6-2.147v-6.494s24.6-5.356,28.576-6.781,5.35-1.477,8.73-.238,23.592,4.884,26.932,6.108c0,0,0,5.8,0,6.4C235.561,284.1,234.79,284.8,233.045,285.711Z" transform="translate(-0.001 -26.731)" fill="#a41e11"/>
    <path id="Path_58" data-name="Path 58" d="M233.044,270.583c-3.428,1.787-21.187,9.089-24.968,11.06s-5.881,1.952-8.868.524-21.885-9.062-25.289-10.689-3.476-2.747-.131-4.057,22.139-8.683,26.111-10.108,5.35-1.477,8.73-.238,21.033,8.264,24.374,9.488S236.472,268.8,233.044,270.583Z" transform="translate(0 -18.098)" fill="#d82c20"/>
    <path id="Path_59" data-name="Path 59" d="M233.045,256.632c-3.428,1.787-21.187,9.089-24.968,11.061s-5.881,1.952-8.868.524-21.885-9.062-25.289-10.689c-1.7-.813-2.6-1.5-2.6-2.147v-6.494s24.6-5.356,28.576-6.781,5.35-1.476,8.73-.238,23.592,4.884,26.932,6.108c0,0,0,5.8,0,6.4C235.561,255.018,234.79,255.722,233.045,256.632Z" transform="translate(-0.001 -8.634)" fill="#a41e11"/>
    <path id="Path_60" data-name="Path 60" d="M233.044,241.5c-3.428,1.787-21.187,9.089-24.968,11.06s-5.881,1.952-8.868.524-21.885-9.062-25.289-10.689-3.476-2.747-.131-4.057,22.139-8.683,26.111-10.108,5.35-1.477,8.73-.238,21.033,8.264,24.374,9.488S236.472,239.717,233.044,241.5Z" fill="#d82c20"/>
    <path id="Path_61" data-name="Path 61" d="M253.532,240.862l-5.566.578-1.246,3-2.013-3.346-6.427-.578,4.8-1.73-1.439-2.655,4.49,1.756,4.233-1.386-1.144,2.745Z" transform="translate(-41.673 -5.612)" fill="#fff"/>
    <path id="Path_62" data-name="Path 62" d="M242.628,276.313,232.24,272l14.886-2.285Z" transform="translate(-37.914 -26.518)" fill="#fff"/>
    <ellipse id="Ellipse_7" data-name="Ellipse 7" cx="7.956" cy="3.084" rx="7.956" ry="3.084" transform="translate(182.356 236.916)" fill="#fff"/>
    <path id="Path_63" data-name="Path 63" d="M296.09,250.83l8.81,3.482-8.8,3.478Z" transform="translate(-77.653 -14.761)" fill="#7a0c00"/>
    <path id="Path_64" data-name="Path 64" d="M270.28,254.686l9.746-3.856.008,6.96-.955.374Z" transform="translate(-61.589 -14.761)" fill="#ad2115"/>
  </g>
</svg>
