<svg xmlns="http://www.w3.org/2000/svg" width="56" height="56" viewBox="0 0 56 56">
  <g id="ts" transform="translate(0.368 0.368)">
    <rect id="Rectangle_25" data-name="Rectangle 25" width="56" height="56" transform="translate(-0.368 -0.368)" fill="#3178c6"/>
    <path id="Path_17" data-name="Path 17" d="M42.352,72.546v6.071a12.8,12.8,0,0,0,3.49,1.138,22.892,22.892,0,0,0,4.246.38,19.775,19.775,0,0,0,4.133-.417,10.111,10.111,0,0,0,3.433-1.376,7,7,0,0,0,2.336-2.5,8.85,8.85,0,0,0,.369-6.716,6.766,6.766,0,0,0-1.419-2.21,10.392,10.392,0,0,0-2.222-1.736A23.783,23.783,0,0,0,53.8,63.724q-1.192-.493-2.137-.958a10.83,10.83,0,0,1-1.608-.949,4.129,4.129,0,0,1-1.021-1.024,2.16,2.16,0,0,1-.359-1.224,2.05,2.05,0,0,1,.322-1.129,2.78,2.78,0,0,1,.908-.863,4.844,4.844,0,0,1,1.437-.56,8.309,8.309,0,0,1,1.891-.2,11.949,11.949,0,0,1,1.6.114,12.591,12.591,0,0,1,1.693.351,11.754,11.754,0,0,1,1.655.6,9.12,9.12,0,0,1,1.485.835V53.043a14.731,14.731,0,0,0-3.017-.787A24.5,24.5,0,0,0,52.887,52a17.4,17.4,0,0,0-4.086.465,10.374,10.374,0,0,0-3.4,1.451A7.242,7.242,0,0,0,43.09,56.43a7.39,7.39,0,0,0-.851,3.652,7.1,7.1,0,0,0,1.56,4.629,11.873,11.873,0,0,0,4.738,3.244q1.248.512,2.326,1.005a12.93,12.93,0,0,1,1.863,1.024,4.889,4.889,0,0,1,1.239,1.157,2.361,2.361,0,0,1,.454,1.423,2.181,2.181,0,0,1-.284,1.091,2.522,2.522,0,0,1-.861.873,4.7,4.7,0,0,1-1.438.579,8.625,8.625,0,0,1-2.014.209,11.455,11.455,0,0,1-3.9-.693A11.618,11.618,0,0,1,42.352,72.546Zm-10.2-15.112h7.92v-5H18v5h7.881V79.7h6.274Z" transform="translate(-10.252 -29.535)" fill="#fff" fill-rule="evenodd"/>
  </g>
</svg>
