<svg xmlns="http://www.w3.org/2000/svg" width="56" height="56"  xmlns:v="https://vecta.io/nano"><path fill="#3178c6" d="M0 0h56v56H0z"/><path d="M32.468 43.38v6.07a12.8 12.8 0 0 0 3.49 1.138 22.89 22.89 0 0 0 4.246.38c1.388.006 2.774-.133 4.133-.417a10.11 10.11 0 0 0 3.433-1.376 7 7 0 0 0 2.336-2.5 8.85 8.85 0 0 0 .369-6.716c-.324-.822-.806-1.573-1.42-2.2a10.39 10.39 0 0 0-2.222-1.736c-.938-.552-1.913-1.038-2.918-1.456q-1.192-.493-2.137-.958a10.83 10.83 0 0 1-1.608-.949 4.13 4.13 0 0 1-1.021-1.024 2.16 2.16 0 0 1-.359-1.224 2.05 2.05 0 0 1 .322-1.129 2.78 2.78 0 0 1 .908-.863c.446-.262.93-.45 1.437-.56a8.31 8.31 0 0 1 1.891-.2 11.95 11.95 0 0 1 1.6.114 12.59 12.59 0 0 1 1.693.351c.566.158 1.12.36 1.655.6a9.12 9.12 0 0 1 1.485.835v-5.674a14.73 14.73 0 0 0-3.017-.787 24.5 24.5 0 0 0-3.762-.256 17.4 17.4 0 0 0-4.086.465c-1.21.276-2.363.768-3.4 1.45a7.24 7.24 0 0 0-2.311 2.514 7.39 7.39 0 0 0-.851 3.652 7.1 7.1 0 0 0 1.56 4.629c1.3 1.453 2.917 2.567 4.738 3.244q1.248.512 2.326 1.005a12.93 12.93 0 0 1 1.863 1.024 4.89 4.89 0 0 1 1.239 1.157 2.36 2.36 0 0 1 .454 1.423 2.18 2.18 0 0 1-.284 1.091 2.52 2.52 0 0 1-.861.873 4.7 4.7 0 0 1-1.438.579c-.66.148-1.337.22-2.014.21-1.33-.003-2.65-.237-3.9-.693a11.62 11.62 0 0 1-3.57-2.077zm-10.2-15.112h7.92v-5H8.116v5h7.88v22.266h6.274z" fill="#fff" fill-rule="evenodd"/></svg>